<?xml version="1.0" encoding="UTF-8" standalone="no" ?>
<!DOCTYPE svg PUBLIC "-//W3C//DTD SVG 1.1//EN" "http://www.w3.org/Graphics/SVG/1.1/DTD/svg11.dtd">
<svg xmlns="http://www.w3.org/2000/svg" xmlns:xlink="http://www.w3.org/1999/xlink" version="1.1" width="1080" height="1080" viewBox="0 0 1080 1080" xml:space="preserve">
<desc>Created with Fabric.js 4.2.0</desc>
<defs>
</defs>
<rect x="0" y="0" width="100%" height="100%" fill="transparent"></rect>
<g transform="matrix(1 0 0 1 540 540)" id="353fa019-242b-48c5-91ec-6bc99fece4eb"  >
</g>
<g transform="matrix(1 0 0 1 540 540)" id="31d5832a-2633-4b73-a45c-08dbda059cd2"  >
<rect style="stroke: none; stroke-width: 1; stroke-dasharray: none; stroke-linecap: butt; stroke-dashoffset: 0; stroke-linejoin: miter; stroke-miterlimit: 4; fill: rgb(214,222,101); fill-rule: nonzero; opacity: 1;" vector-effect="non-scaling-stroke"  x="-540" y="-540" rx="0" ry="0" width="1080" height="1080" />
</g>
<g transform="matrix(1.79 0 0 1.96 544.13 551.32)"  >
<path style="stroke: rgb(13,14,14); stroke-width: 0; stroke-dasharray: none; stroke-linecap: butt; stroke-dashoffset: 0; stroke-linejoin: miter; stroke-miterlimit: 4; fill: rgb(202,51,80); fill-rule: nonzero; opacity: 1;" vector-effect="non-scaling-stroke"  transform=" translate(-288.02, -255.99)" d="M 275.3 250.5 C 282.3 257.9 293.7 257.9 300.8 250.5 L 409.70000000000005 136.3 C 441.30000000000007 103.10000000000001 439.50000000000006 48.10000000000001 404.1 17.500000000000014 C 373.3 -9.199999999999985 327.40000000000003 -4.399999999999984 299.20000000000005 25.200000000000014 L 288 36.9 L 276.9 25.299999999999997 C 248.7 -4.4 202.8 -9.2 172 17.5 C 136.7 48.1 134.8 103.1 166.4 136.3 L 275.3 250.5 z M 565.3 328.1 C 553.5 317.40000000000003 535.0999999999999 318.1 522.6999999999999 328.1 L 430.3 402 C 419 411.1 404.90000000000003 416 390.3 416 L 272 416 C 263.2 416 256 408.8 256 400 C 256 391.2 263.2 384 272 384 L 350.3 384 C 366.2 384 381 373.1 383.6 357.4 C 386.90000000000003 337.4 371.5 320 352 320 L 192 320 C 165 320 138.9 329.3 117.9 346.3 L 71.4 384 L 16 384 C 7.199999999999999 384 0 391.2 0 400 L 0 496 C 0 504.8 7.2 512 16 512 L 372.8 512 C 387.3 512 401.40000000000003 507.1 412.8 498 L 564 377 C 579.2 364.9 580.4 341.7 565.3 328.1 z" stroke-linecap="round" />
</g>
</svg>